<svg width="26" height="25" vieBox="0 0 26 25" fill="none" xmlns="http://www.w3.org/2000/svg"><path d="M19.7 21.88a4.8 4.8 0 01-2.6-.76 4.54 4.54 0 01-1.71-2.02 4.33 4.33 0 011.01-4.9 4.85 4.85 0 015.1-.97c.84.34 1.57.92 2.09 1.66a4.37 4.37 0 01-.58 5.67 4.77 4.77 0 01-3.3 1.32zm0-7.43c-.6 0-1.19.17-1.69.5-.5.32-.9.78-1.12 1.31a2.82 2.82 0 00.66 3.2 3.16 3.16 0 003.32.64c.56-.23 1.03-.6 1.37-1.09a2.85 2.85 0 00-.38-3.7 3.11 3.11 0 00-2.16-.86zM6.3 21.88a4.8 4.8 0 01-2.6-.76 4.54 4.54 0 01-1.72-2.02A4.33 4.33 0 013 14.2a4.85 4.85 0 015.1-.97c.85.34 1.58.92 2.1 1.66a4.37 4.37 0 01-.6 5.67 4.77 4.77 0 01-3.3 1.32zm0-7.43c-.6 0-1.2.17-1.7.5-.5.32-.89.78-1.12 1.31a2.83 2.83 0 00.66 3.2 3.16 3.16 0 003.32.64c.56-.23 1.04-.6 1.37-1.09a2.85 2.85 0 00-.38-3.7 3.11 3.11 0 00-2.15-.86zM16.25 6.25a1.68 1.68 0 001.15-.46 1.55 1.55 0 00.36-1.7 1.54 1.54 0 00-.88-.85c-.2-.08-.4-.12-.62-.11a1.68 1.68 0 00-1.15.45 1.56 1.56 0 00-.48 1.1 1.51 1.51 0 00.47 1.1 1.63 1.63 0 001.15.47z" fill="#1D2E5B"/><path d="M18.66 9.38h-2.22a.2.2 0 01-.1-.03.2.2 0 01-.08-.08l-1.6-2.84a1.6 1.6 0 00-2.5-.38L8.58 9.5c-.3.3-.47.69-.47 1.1 0 .85.63 1.15.93 1.32 1.45.8 2.47 1.39 3.03 1.71a.2.2 0 01.1.17v3.37a.81.81 0 001.1.76.82.82 0 00.46-.43c.04-.1.06-.2.06-.3v-4.2a.76.76 0 00-.34-.64l-1.87-1.3a.2.2 0 01-.09-.14.19.19 0 01.06-.15l2.13-2.19a.2.2 0 01.17-.06.2.2 0 01.15.1l1.11 1.93a.8.8 0 00.3.29c.13.07.27.1.41.1h2.85a.84.84 0 00.59-.23.78.78 0 00.22-.58c-.02-.42-.4-.74-.84-.74z" fill="#1D2E5B"/></svg>
