<svg width="23" height="24" vieBox="0 0 26 25" fill="none" xmlns="http://www.w3.org/2000/svg"><path d="M16.19 6c1.04 0 1.89-.9 1.89-2s-.85-2-1.9-2c-1.04 0-1.88.9-1.88 2s.84 2 1.89 2zM15.03 10.97c.22.34.53.6.9.75.36.15.75.18 1.13.08l3.14-.83-.46-1.94-3.13.83-1.3-2.07a1.9 1.9 0 00-1.21-.85l-3.64-.77a1.8 1.8 0 00-1.2.16c-.37.2-.67.51-.86.9l-1.57 3.32 1.7.9 1.56-3.32 1.86.4L7.15 17h-4.2v2h4.2c.65 0 1.28-.37 1.62-.97l1.8-3.2 4.9 1.04 1.71 5.45 1.8-.64-1.72-5.45c-.1-.33-.3-.63-.54-.86-.25-.24-.56-.4-.88-.46l-2.88-.61 1.68-2.96.4.63z" fill="#1D2E5B"/></svg>
