<svg width="36" height="34" fill="none" xmlns="http://www.w3.org/2000/svg"><path fill-rule="evenodd" clip-rule="evenodd" d="M18 2.17c-5.6 0-11.2.95-13.23 2.83-1.7 1.57-2.25 4.33-2.44 6.08l-.03.24c0 .69.59 1.24 1.3 1.24.1 0 3.24-.24 5.14-.4.04 0 .09 0 .13-.02.71-.01 1.28-.56 1.28-1.23V8.47c0-.75.65-1.36 1.45-1.36h12.8c.8 0 1.44.61 1.44 1.36l.01 2.44c0 .67.57 1.22 1.28 1.23.04.02.09.02.13.03l5.13.39c.72 0 1.31-.55 1.31-1.24l-.03-.24c-.19-1.75-.75-4.51-2.44-6.08C29.2 3.12 23.6 2.17 18 2.17zm0 16.07a2.55 2.55 0 00-2.62 2.47A2.55 2.55 0 0018 23.18c1.45 0 2.62-1.1 2.62-2.47A2.55 2.55 0 0018 18.24zm-1.96-5.56v-1.55A1.6 1.6 0 0014.4 9.6c-.9 0-1.63.69-1.63 1.54v1.55l-8.83 8.9a3 3 0 00-.99 2.21v2.48a2.55 2.55 0 002.62 2.47h.66v1.54c0 .86.73 1.55 1.63 1.55.9 0 1.64-.7 1.64-1.55v-1.54h17v1.54c0 .86.74 1.55 1.64 1.55.9 0 1.63-.7 1.63-1.55v-1.54h.66c1.44 0 2.62-1.1 2.62-2.47v-2.48a3 3 0 00-1-2.21l-8.82-8.9v-1.55A1.6 1.6 0 0021.6 9.6c-.9 0-1.64.69-1.64 1.54v1.55h-3.92zM18 15.76c2.9 0 5.23 2.22 5.23 4.95S20.9 25.65 18 25.65c-2.9 0-5.23-2.21-5.23-4.94 0-2.73 2.34-4.95 5.23-4.95z" fill="#FFD74B"/></svg>