<svg width="70pt" height="47pt" viewBox="0 0 70 47" xmlns="http://www.w3.org/2000/svg"><g fill="#0c0e10"><path opacity=".2" d="M0 0h5.33A8.01 8.01 0 000 5.44V0zM64.54 0H70v5.32A7.99 7.99 0 0064.54 0z"/></g><path fill="#3e4954" d="M5.33 0h59.21A7.99 7.99 0 0170 5.32V16H0V5.44A8.01 8.01 0 015.33 0z"/><path fill="#ff5466" d="M0 16h70v16H0V16z"/><path fill="#ffbc32" d="M0 32h70v9.5a7.82 7.82 0 01-5.37 5.5H5.61A7.76 7.76 0 010 41.66V32z"/><g fill="#33250a"><path opacity=".2" d="M0 41.66A7.76 7.76 0 005.61 47H0v-5.34zM64.63 47A7.82 7.82 0 0070 41.5V47h-5.37z"/></g></svg>