<svg width="19" height="21" viewBox="0 0 19 21" fill="none" xmlns="http://www.w3.org/2000/svg">
<path d="M17.4881 0.180422C16.6889 0.36085 15.886 0.542125 15.5873 1.03885L13.2758 5.4124L0.864106 8.21454L0.361239 9.61196L9.85895 10.4648L8.24751 14.251L4.64557 15.0642L3.74123 16.5523L6.33976 16.8202L6.63608 18.0372C6.76883 18.4686 7.23478 18.7566 7.63249 18.6668L8.83314 18.3958L10.2249 20.6493L11.1293 19.1613L10.2403 15.5103L12.8482 12.3537L17.8242 20.6469L18.8276 19.5657L15.7654 6.98882L18.5775 2.93156C18.8799 2.43399 18.6827 1.62393 18.4845 0.810059C18.3863 0.406928 17.8858 0.0906318 17.4881 0.180422Z" fill="#1D2E5B"/>
</svg>
