<svg xmlns="http://www.w3.org/2000/svg" xmlns:xlink="http://www.w3.org/1999/xlink">
  <symbol viewBox="0 0 18 18" id="call-icon">
    <g>
      <path
        d="M8.97 7.42c0 .2.16.34.35.34.38 0 .7.32.7.7 0 .18.15.33.34.33.19 0 .34-.15.34-.33 0-.76-.62-1.37-1.38-1.37a.34.34 0 00-.35.33zm5.56 1.37c.2 0 .34-.15.34-.33 0-3.03-2.49-5.5-5.55-5.5a.34.34 0 00-.35.34c0 .19.16.34.35.34a4.85 4.85 0 014.87 4.82c0 .18.15.33.34.33z"
        />
      <path
        d="M12.1 8.46c0 .18.16.33.35.33.18 0 .34-.15.34-.33 0-1.9-1.56-3.44-3.47-3.44a.34.34 0 00-.35.34c0 .2.16.34.35.34a2.78 2.78 0 012.78 2.76zM9.32.9a.34.34 0 00-.35.34c0 .18.16.33.35.33a6.93 6.93 0 016.96 6.89c0 .18.15.33.34.33.19 0 .34-.15.34-.33A7.61 7.61 0 009.32.9zm3.33 11.11l-.45.24c-.75.41-1.34 1.53-2.27.69L7.5 10.5 5.4 8.46c-1.06-1.34.13-1.65.54-2.4l.24-.44a2.57 2.57 0 00-.45-3.1c-.5-.49-1.16-.76-1.87-.76-.7 0-1.37.27-1.87.76l-.17.18c-.93.91-1.03 2.48-.3 4.42A16.39 16.39 0 005.4 12.8c2.77 2.73 5.85 4.31 8.06 4.31.88 0 1.62-.25 2.14-.77l.18-.17a2.6 2.6 0 000-3.7c-.82-.81-2.1-1-3.13-.45z" />
    </g>
      </symbol>
      <symbol viewBox="0 0 16 14" id="mail-icon">
        <g>
          <path d="M1.26 2.6l6 3.76c.2.13.46.19.72.19.27 0 .53-.06.73-.19l6-3.76c.39-.25.76-1.2.04-1.2H1.22c-.72 0-.35.95.04 1.2zm13.63 2.06L8.71 8.4a1.2 1.2 0 01-.73.2 1.2 1.2 0 01-.72-.2L1.1 4.66c-.31-.2-.31.03-.31.2v6.8c0 .4.45.94.8.94h12.8c.35 0 .8-.54.8-.93v-6.8c0-.18 0-.4-.3-.21z"/>
        </g>
      </symbol>
      <symbol viewBox="0 0 14 28" id="facebook-icon">
        <g>
          <path d="M9.53 27.75H2.71v-12.9H0V8.47h2.63c-.2-2.89.3-5 1.52-6.44A6.21 6.21 0 018.74 0h4.78v6.15H9.76c-.22.75-.3 1.54-.25 2.32h4v6.38h-4l.02 12.9zm-5.31-1.5H8v-12.9h4V10H8v-.76c0-2 0-3.79 1-4.46l.19-.13H12V1.5H8.78A4.67 4.67 0 005.29 3c-1 1.23-1.41 3.29-1.1 6.14l.1.83H1.5v3.38h2.72v12.9z"/>
        </g>
      </symbol>
      <symbol viewBox="0 0 23 12" id="vkontakte-icon">
        <g>
          <path d="M17.77 11.83a2.98 2.98 0 01-1.55-.47 7.56 7.56 0 01-1.32-1.15c-.32-.33-.87-.88-1.07-.88-.21 0-.36.69-.35 1.18 0 .33-.12.66-.35.9-.26.22-.57.35-.9.38H10.8c-2.05-.05-4-.85-5.51-2.25C2.56 7 .2 2.18.12 1.97a1.01 1.01 0 01.1-1.1C.52.61.88.48 1.25.5h3.12c.24.04.48.13.7.26.2.14.36.33.46.55.32.7.7 1.36 1.1 2 .97 1.5 1.4 1.85 1.56 1.92.17-.7.22-1.43.14-2.15.03-.33-.03-.66-.15-.96a.98.98 0 00-.58-.22l-.54-.51c-.1-.5.44-.93.82-1.1A6.38 6.38 0 0110.2.02h.52c.54-.01 1.07.04 1.6.15 1.26.27 1.21 1.3 1.16 2.49 0 .34-.03.75-.03 1.21v.36c-.03.33-.01.66.06.98a6.8 6.8 0 001.54-1.86c.43-.67.8-1.38 1.13-2.1a1.18 1.18 0 011.18-.72h3.46c.74 0 1.18.22 1.36.64.18.42.12 1.25-1.75 3.46l-.74.85a5.5 5.5 0 00-.92 1.19c.28.32.6.6.95.85.85.65 1.6 1.43 2.22 2.3a1.2 1.2 0 01.2 1.27 1.71 1.71 0 01-1.4.75l-2.81.03-.17-.03zM13.83 8.2c.66 0 1.24.6 1.86 1.22.33.37.7.7 1.11.97.31.21.67.32 1.04.32h.07l2.82-.04c.14 0 .28-.04.4-.1l-.07-.12a9.86 9.86 0 00-1.99-2.04c-.88-.75-1.33-1.1-1.39-1.68-.05-.58.37-1.08 1.2-2.04l.74-.83a8.05 8.05 0 001.52-2.21 4.16 4.16 0 00-.5 0H17.4a.4.4 0 00-.18 0c-.34.8-.75 1.56-1.22 2.29-1.4 2.11-2.06 2.4-2.53 2.4a.88.88 0 01-.41-.1c-.75-.44-.75-1.39-.7-2.08v-.32c0-.49 0-.9.03-1.27.06-1.26 0-1.27-.28-1.33-.45-.1-.91-.14-1.38-.12h-.5c-.48-.01-.95.01-1.42.07.07.05.13.12.19.19.3.49.46 1.06.43 1.63.1 1.24.05 2.85-.74 3.24-.14.07-.29.1-.44.1-.7 0-1.38-.66-2.54-2.44-.45-.69-.85-1.4-1.2-2.14l-.05-.08a.9.9 0 00-.24-.08H1.2c.44.92 2.51 4.97 4.84 7.09 1.3 1.2 2.99 1.9 4.76 1.97h1.37a.74.74 0 00.2-.07v-.07c0-.2 0-1.95 1.17-2.25.1-.04.19-.06.29-.08z"/>
        </g>
      </symbol>
      <symbol viewBox="0 0 24 24" id="instagram-icon">
        <g>
          <path d="M17.28 2.4a4.33 4.33 0 014.32 4.32v10.56a4.33 4.33 0 01-4.32 4.32H6.72a4.33 4.33 0 01-4.31-4.32V6.72A4.33 4.33 0 016.72 2.4h10.56zm0-1.44H6.72A5.76 5.76 0 00.96 6.72v10.56a5.76 5.76 0 005.76 5.76h10.56a5.76 5.76 0 005.76-5.76V6.72A5.76 5.76 0 0017.28.96z"/><path d="M12 7.76a4.25 4.25 0 110 8.5 4.25 4.25 0 010-8.5zm0-1.44A5.7 5.7 0 1012 17.7a5.7 5.7 0 00.02-11.38zM17.9 7.41a1.29 1.29 0 100-2.57 1.29 1.29 0 000 2.57z"/>
        </g>
      </symbol>
      <symbol vieBox="0 0 27 34" id="htmlacademy-logo">
        <g>
          <path d="M13.64.1L13.5.1 0 1.46v24.1l13.5 7.83L27 25.57V1.47L13.64.1zm11.6 24.49l-11.74 6.8-11.73-6.8V14.7l11.68 6.77.02 1.23-8.02-4.65v1.2l8.04 4.71.02 1.26-8.05-4.66v1.2l8.04 4.71 8.12-4.73v-5.1l3.62-2.1v10.04zm0-11.33L22 15.1l-1.48.86-7.06-4.1-.01 1.2 6.04 3.5-.06.03-.13.07-.86.49-4.98-2.9-.01 1.2 3.93 2.29-.93.6h-.02l-2.97-1.7-.01 1.2 1.94 1.11-1.98 1.17L1.8 13.38l11.63-6.81 11.8 6.7zm0-1.2L13.43 5.3 1.77 12.06V3l11.73-1.2 11.73 1.2v9.05z" fill="#192144"/>
        </g>
      </symbol>
      <symbol vieBox="0 0 21 21" id="plane-icon">
        <g>
          <g clip-path="url(#clip0)"><path d="M16.78 2.1c-.73.17-1.46.34-1.73.82l-2.1 4.2L1.62 9.8l-.46 1.34 8.66.82-1.47 3.63-3.28.78-.83 1.43 2.37.26.27 1.17c.12.41.55.69.9.6l1.1-.26 1.27 2.16.83-1.43-.81-3.5 2.37-3.03 4.54 7.96.91-1.04-2.79-12.07 2.57-3.9c.27-.47.1-1.25-.09-2.03-.09-.39-.54-.7-.9-.6z"/></g><defs><clipPath id="clip0"><path fill="#fff" transform="translate(0 .96)" d="M0 0h20.83v21.12H0z"/></clipPath></defs>
        </g>
      </symbol>
      <symbol vieBox="0 0 17 19" id="car-icon">
        <g>
          <path d="M4.34 13.95c0-.38-.14-.7-.42-.97a1.4 1.4 0 00-1-.4c-.4 0-.73.13-1 .4-.28.27-.42.59-.42.97s.14.7.42.97c.27.27.6.4 1 .4s.73-.13 1-.4c.28-.27.42-.6.42-.97zm11.36 0c0-.38-.14-.7-.42-.97a1.4 1.4 0 00-1-.4c-.4 0-.73.13-1 .4-.28.27-.42.59-.42.97s.14.7.41.97c.28.27.61.4 1 .4.4 0 .73-.13 1.01-.4s.42-.6.42-.97zm-.51-4.24l-.8-4.12a.7.7 0 00-.25-.4.7.7 0 00-.45-.16H3.5a.7.7 0 00-.45.16.7.7 0 00-.25.4l-.8 4.12c-.04.21.02.4.16.56.14.17.32.25.54.25h11.78c.22 0 .4-.08.54-.25.14-.16.2-.35.16-.56zm-2.51-6.56a.52.52 0 00-.53-.51h-7.1a.52.52 0 00-.38.14c-.1.1-.15.23-.15.37 0 .14.05.26.15.36.1.1.23.15.38.15h7.1a.52.52 0 00.53-.51zm4.43 7.77v6.46H15.7v1.37c0 .38-.14.7-.42.97-.28.27-.61.4-1 .4-.4 0-.73-.13-1-.4a1.3 1.3 0 01-.42-.97v-1.37H4.34v1.37c0 .38-.14.7-.42.97-.27.27-.6.4-1 .4s-.73-.13-1-.4a1.3 1.3 0 01-.42-.97v-1.37H.08v-6.46c0-.8.1-1.6.28-2.4L1.5 3.67c.07-.55.43-1.04 1.08-1.47.66-.42 1.5-.73 2.55-.95A17.3 17.3 0 018.6.92c1.26 0 2.42.1 3.46.32 1.05.22 1.9.53 2.55.95.66.43 1.02.92 1.09 1.47l1.16 4.87c.17.73.25 1.52.25 2.39z"/>
        </g>
      </symbol>
      <symbol vieBox="0 0 26 25" id="bike-icon">
        <g>
          <path d="M19.7 21.88a4.8 4.8 0 01-2.6-.76 4.54 4.54 0 01-1.71-2.02 4.33 4.33 0 011.01-4.9 4.85 4.85 0 015.1-.97c.84.34 1.57.92 2.09 1.66a4.37 4.37 0 01-.58 5.67 4.77 4.77 0 01-3.3 1.32zm0-7.43c-.6 0-1.19.17-1.69.5-.5.32-.9.78-1.12 1.31a2.82 2.82 0 00.66 3.2 3.16 3.16 0 003.32.64c.56-.23 1.03-.6 1.37-1.09a2.85 2.85 0 00-.38-3.7 3.11 3.11 0 00-2.16-.86zM6.3 21.88a4.8 4.8 0 01-2.6-.76 4.54 4.54 0 01-1.72-2.02A4.33 4.33 0 013 14.2a4.85 4.85 0 015.1-.97c.85.34 1.58.92 2.1 1.66a4.37 4.37 0 01-.6 5.67 4.77 4.77 0 01-3.3 1.32zm0-7.43c-.6 0-1.2.17-1.7.5-.5.32-.89.78-1.12 1.31a2.83 2.83 0 00.66 3.2 3.16 3.16 0 003.32.64c.56-.23 1.04-.6 1.37-1.09a2.85 2.85 0 00-.38-3.7 3.11 3.11 0 00-2.15-.86zM16.25 6.25a1.68 1.68 0 001.15-.46 1.55 1.55 0 00.36-1.7 1.54 1.54 0 00-.88-.85c-.2-.08-.4-.12-.62-.11a1.68 1.68 0 00-1.15.45 1.56 1.56 0 00-.48 1.1 1.51 1.51 0 00.47 1.1 1.63 1.63 0 001.15.47z"/><path d="M18.66 9.38h-2.22a.2.2 0 01-.1-.03.2.2 0 01-.08-.08l-1.6-2.84a1.6 1.6 0 00-2.5-.38L8.58 9.5c-.3.3-.47.69-.47 1.1 0 .85.63 1.15.93 1.32 1.45.8 2.47 1.39 3.03 1.71a.2.2 0 01.1.17v3.37a.81.81 0 001.1.76.82.82 0 00.46-.43c.04-.1.06-.2.06-.3v-4.2a.76.76 0 00-.34-.64l-1.87-1.3a.2.2 0 01-.09-.14.19.19 0 01.06-.15l2.13-2.19a.2.2 0 01.17-.06.2.2 0 01.15.1l1.11 1.93a.8.8 0 00.3.29c.13.07.27.1.41.1h2.85a.84.84 0 00.59-.23.78.78 0 00.22-.58c-.02-.42-.4-.74-.84-.74z"/>
        </g>
      </symbol>
      <symbol vieBox="0 0 26 25" id="walk-icon">
        <g>
          <path d="M16.19 6c1.04 0 1.89-.9 1.89-2s-.85-2-1.9-2c-1.04 0-1.88.9-1.88 2s.84 2 1.89 2zM15.03 10.97c.22.34.53.6.9.75.36.15.75.18 1.13.08l3.14-.83-.46-1.94-3.13.83-1.3-2.07a1.9 1.9 0 00-1.21-.85l-3.64-.77a1.8 1.8 0 00-1.2.16c-.37.2-.67.51-.86.9l-1.57 3.32 1.7.9 1.56-3.32 1.86.4L7.15 17h-4.2v2h4.2c.65 0 1.28-.37 1.62-.97l1.8-3.2 4.9 1.04 1.71 5.45 1.8-.64-1.72-5.45c-.1-.33-.3-.63-.54-.86-.25-.24-.56-.4-.88-.46l-2.88-.61 1.68-2.96.4.63z"/>
        </g>
      </symbol>
      <symbol viewBox="0 0 36 34" id="contacts-phone-icon">
        <g>
          <path fill-rule="evenodd" clip-rule="evenodd" d="M18 2.17c-5.6 0-11.2.95-13.23 2.83-1.7 1.57-2.25 4.33-2.44 6.08l-.03.24c0 .69.59 1.24 1.3 1.24.1 0 3.24-.24 5.14-.4.04 0 .09 0 .13-.02.71-.01 1.28-.56 1.28-1.23V8.47c0-.75.65-1.36 1.45-1.36h12.8c.8 0 1.44.61 1.44 1.36l.01 2.44c0 .67.57 1.22 1.28 1.23.04.02.09.02.13.03l5.13.39c.72 0 1.31-.55 1.31-1.24l-.03-.24c-.19-1.75-.75-4.51-2.44-6.08C29.2 3.12 23.6 2.17 18 2.17zm0 16.07a2.55 2.55 0 00-2.62 2.47A2.55 2.55 0 0018 23.18c1.45 0 2.62-1.1 2.62-2.47A2.55 2.55 0 0018 18.24zm-1.96-5.56v-1.55A1.6 1.6 0 0014.4 9.6c-.9 0-1.63.69-1.63 1.54v1.55l-8.83 8.9a3 3 0 00-.99 2.21v2.48a2.55 2.55 0 002.62 2.47h.66v1.54c0 .86.73 1.55 1.63 1.55.9 0 1.64-.7 1.64-1.55v-1.54h17v1.54c0 .86.74 1.55 1.64 1.55.9 0 1.63-.7 1.63-1.55v-1.54h.66c1.44 0 2.62-1.1 2.62-2.47v-2.48a3 3 0 00-1-2.21l-8.82-8.9v-1.55A1.6 1.6 0 0021.6 9.6c-.9 0-1.64.69-1.64 1.54v1.55h-3.92zM18 15.76c2.9 0 5.23 2.22 5.23 4.95S20.9 25.65 18 25.65c-2.9 0-5.23-2.21-5.23-4.94 0-2.73 2.34-4.95 5.23-4.95z" fill="#FFD74B"/>
        </g>
      </symbol>
      <symbol viewBox="0 0 36 25" id="contacts-mail-icon">
        <g>
          <path fill-rule="evenodd" clip-rule="evenodd" d="M32.28 20.93L23.62 13l8.66-7.93L31.1 3.8 18.5 15.34 5.9 3.81 4.72 5.07 13.38 13l-8.66  7.93L5.9 22.2l8.76-8.02 3.84 3.52 3.84-3.52 8.76 8.02 1.18-1.26zM3.15.5C1.53.5.22 1.9.22 3.62v18.76c0 1.73 1.3 3.12 2.93 3.12h30.7c1.  62 0 2.93-1.4 2.93-3.12V3.62c0-1.73-1.3-3.12-2.93-3.12H3.15z"/>
        </g>
      </symbol>
      <symbol vieBox="0 0 32 42" id="map-icon">
        <g>
          <path d="M16 0C7.3 0 .25 7.05.25 15.75c0 10.12 7.6 14.54 9.29 16.56C13.58 37.15 13.8 42 16 42c2.2 0 2.42-4.85 6.46-9.7 1.68-2.01 9.29-6.43 9.29-16.55C31.75 7.05 24.7 0 16 0zm0 26.25a10.5 10.5 0 110-21 10.5 10.5 0 010 21zm0-15.75A5.25 5.25 0 1016 21a5.25 5.25 0 000-10.5z" fill="#FFD74B"/><circle cx="16" cy="15.75" fill="#161C35" r="1.75"/>
        </g>
      </symbol>
      <symbol vieBox="0 0 21 19" id="like-icon">
        <g>
          <path clip-rule="evenodd" d="M10.26 7.12l1.12-2.34a7.7 7.7 0 011.44-2.1 3.44 3.44 0 012.44-1.12 3.8 3.8 0 013.76 3.84c0 1.59-.7 2.7-2.34 4.42-.42.44-.9.91-1.43 1.44a67.67 67.67 0 00-5 5.33 67.65 67.65 0 00-4.98-5.33c-.54-.53-1.02-1-1.44-1.44C2.2 8.11 1.5 7 1.5 5.4a3.8 3.8 0 013.76-3.84c.97 0 1.77.46 2.44 1.12a7.7 7.7 0 011.45 2.1l1.12 2.34zm.49 10.9a.65.65 0 01-.5.23.62.62 0 01-.48-.24c-2-2.5-3.82-4.28-5.32-5.75C1.87 9.7.25 8.1.25 5.4a5.08 5.08 0 015-5.15c2 0 3.4 1.38 4.26 2.64.33.48.57.94.75 1.3.21-.45.46-.89.74-1.3.86-1.26 2.26-2.64 4.26-2.64 2.77 0 5.01 2.3 5.01 5.15 0 2.71-1.63 4.31-4.21 6.86-1.5 1.47-3.3 3.26-5.31 5.75z" />
        </g>
      </symbol>
</svg>
